<svg width="1157" height="360" viewBox="0 0 1157 360" fill="none" xmlns="http://www.w3.org/2000/svg">
<g clip-path="url(#clip0_3750_1183)">
<path d="M29.814 357.599L18.7117 346.497L13.7384 346.277L13.5082 341.293L1.41524 329.2C1.40523 329.3 1.39522 329.4 1.37021 329.5C1.26514 329.951 1.90056 331.202 1.72544 331.632L12.0323 341.939L12.2974 347.708L18.0612 347.968L28.278 358.184C28.7183 357.829 29.2587 357.604 29.814 357.599Z" fill="#AD7B2B"/>
<path d="M20.4029 343.9H16.3202V339.817L22.3292 337.896L20.4029 343.9Z" fill="#AD7B2B"/>
<path d="M67.499 357.499H2.50099V292.501L1 291V359H69L67.499 357.499Z" fill="#AD7B2B"/>
<path d="M34.152 358.044L28.9986 352.896L7.19916 352.801L7.1091 331.102L7.1041 331.001L1.92567 325.823L1.57544 326.173L6.60877 331.207L6.69883 353.296L28.7934 353.396L33.7968 358.4L34.152 358.044Z" fill="#AD7B2B"/>
</g>
<g clip-path="url(#clip1_3750_1183)">
<path d="M1128.19 356.599L1139.29 345.497L1144.26 345.277L1144.49 340.293L1156.58 328.2C1156.59 328.3 1156.6 328.4 1156.63 328.5C1156.73 328.951 1156.1 330.202 1156.27 330.632L1145.97 340.939L1145.7 346.708L1139.94 346.968L1129.72 357.184C1129.28 356.829 1128.74 356.604 1128.19 356.599Z" fill="#AD7B2B"/>
<path d="M1137.6 342.9H1141.68V338.817L1135.67 336.896L1137.6 342.9Z" fill="#AD7B2B"/>
<path d="M1090.5 356.499H1155.5V291.501L1157 290V358H1089L1090.5 356.499Z" fill="#AD7B2B"/>
<path d="M1123.85 357.044L1129 351.896L1150.8 351.801L1150.89 330.102L1150.9 330.001L1156.07 324.823L1156.42 325.173L1151.39 330.207L1151.3 352.296L1129.21 352.396L1124.2 357.4L1123.85 357.044Z" fill="#AD7B2B"/>
</g>
<g clip-path="url(#clip2_3750_1183)">
<path d="M1.40089 29.8141L12.5032 18.7117L12.7234 13.7384L17.7067 13.5083L29.7997 1.41528C29.6996 1.40528 29.5996 1.39527 29.4995 1.37025C29.0492 1.26518 27.7984 1.9006 27.3681 1.72549L17.0613 12.0323L11.2924 12.2975L11.0323 18.0613L0.815502 28.2781C1.17074 28.7183 1.39589 29.2587 1.40089 29.8141Z" fill="#AD7B2B"/>
<path d="M15.1 20.4028L15.1 16.3201L19.1827 16.3201L21.104 22.3291L15.1 20.4028Z" fill="#AD7B2B"/>
<path d="M1.50099 67.499L1.50099 2.50099L66.499 2.50099L68 1L0 1L8.10892e-07 69L1.50099 67.499Z" fill="#AD7B2B"/>
<path d="M0.955677 34.1519L6.10409 28.9985L6.19915 7.1991L27.8985 7.10904L27.9986 7.10404L33.177 1.92561L32.8268 1.57538L27.7934 6.60871L5.70382 6.69877L5.60375 28.7934L0.600441 33.7967L0.955677 34.1519Z" fill="#AD7B2B"/>
</g>
<g clip-path="url(#clip3_3750_1183)">
<path d="M1154.6 28.8141L1143.5 17.7117L1143.28 12.7384L1138.29 12.5083L1126.2 0.415282C1126.3 0.405275 1126.4 0.395269 1126.5 0.370252C1126.95 0.265183 1128.2 0.900603 1128.63 0.725487L1138.94 11.0323L1144.71 11.2975L1144.97 17.0613L1155.18 27.2781C1154.83 27.7183 1154.6 28.2587 1154.6 28.8141Z" fill="#AD7B2B"/>
<path d="M1140.9 19.4028L1140.9 15.3201L1136.82 15.3201L1134.9 21.3291L1140.9 19.4028Z" fill="#AD7B2B"/>
<path d="M1154.5 66.499L1154.5 1.50099L1089.5 1.50099L1088 0L1156 8.10892e-07L1156 68L1154.5 66.499Z" fill="#AD7B2B"/>
<path d="M1155.04 33.1519L1149.9 27.9985L1149.8 6.1991L1128.1 6.10904L1128 6.10404L1122.82 0.92561L1123.17 0.575378L1128.21 5.60871L1150.3 5.69877L1150.4 27.7934L1155.4 32.7967L1155.04 33.1519Z" fill="#AD7B2B"/>
</g>
<defs>
<clipPath id="clip0_3750_1183">
<rect width="68" height="68" fill="white" transform="translate(1 291)"/>
</clipPath>
<clipPath id="clip1_3750_1183">
<rect width="68" height="68" fill="white" transform="matrix(-1 0 0 1 1157 290)"/>
</clipPath>
<clipPath id="clip2_3750_1183">
<rect width="68" height="68" fill="white" transform="translate(68 1) rotate(90)"/>
</clipPath>
<clipPath id="clip3_3750_1183">
<rect width="68" height="68" fill="white" transform="matrix(-1.19249e-08 1 1 1.19249e-08 1088 0)"/>
</clipPath>
</defs>
</svg>
